<?xml version="1.0" encoding="UTF-8"?>
<svg id="Layer_1" xmlns="http://www.w3.org/2000/svg" version="1.1" viewBox="0 0 17.7 17.7">
  <!-- Generator: Adobe Illustrator 29.1.0, SVG Export Plug-In . SVG Version: 2.1.0 Build 142)  -->
  <defs>
    <style>
      .st0 {
        fill: none;
      }

      .st1 {
        fill: #3f58a7;
      }

      .st2 {
        fill: #fff;
      }
    </style>
  </defs>
  <path class="st0" d="M1.7,1.7h16v16H1.7V1.7Z"/>
  <rect class="st1" x="0" y="0" width="17.7" height="17.7" rx="2" ry="2"/>
  <path class="st2" d="M16,3.9l-1.7,2.1-1.7-2.1h1.2v-.5c0-.8-.7-1.5-1.5-1.5h-.5V.9h.5c1.4,0,2.5,1.1,2.5,2.5v.5h1.2ZM5.8,9.9h-3.2c-.5,0-.8-.4-.8-.8V2.8c0-.5.4-.8.8-.8h6.3c.5,0,.8.4.8.8v3.2h1v-3.2c0-1-.8-1.8-1.8-1.8H2.7c-1,0-1.8.8-1.8,1.8v6.3c0,1,.8,1.8,1.8,1.8h3.2v-1ZM7.6,6c.2-.3.3-.7.4-1h.8v-1h-2.5.1c0-.1-1.1-1.2-1.1-1.2l-.7.7.5.5h-2.4v1h.8c.3.9.8,1.7,1.4,2.4-.5.4-1.2.6-1.8.8l.2,1c.8-.2,1.6-.6,2.3-1.1,0,0,0,0,0,0,0-1,.7-1.9,1.7-2.1ZM4.7,4.9h2.3c-.3.7-.6,1.3-1.1,1.8-.5-.5-.9-1.1-1.1-1.8ZM15,16.9h-6.4c-1,0-1.8-.8-1.8-1.8v-6.4c0-1,.8-1.8,1.8-1.8h6.4c1,0,1.8.8,1.8,1.8v6.4c0,1-.8,1.8-1.8,1.8ZM8.7,7.9c-.4,0-.8.4-.8.8v6.4c0,.4.4.8.8.8h6.4c.4,0,.8-.4.8-.8v-6.4c0-.4-.4-.8-.8-.8h-6.4ZM14,14.9l.9-.4-3-6.2-3,6.2.9.4.5-.9h3.4l.5.9ZM10.6,12.9l1.2-2.5,1.2,2.5h-2.4ZM5.8,15.9v1h-.5c-1.4,0-2.5-1.1-2.5-2.5v-.5h-1.2l1.7-2.1,1.7,2.1h-1.2v.5c0,.8.7,1.5,1.5,1.5h.5Z"/>
</svg>